<?xml version="1.0" encoding="UTF-8"?>
<!DOCTYPE svg PUBLIC "-//W3C//DTD SVG 1.1//EN" "http://www.w3.org/Graphics/SVG/1.1/DTD/svg11.dtd">
<svg xmlns="http://www.w3.org/2000/svg" version="1.1" width="16px" height="16px" style="shape-rendering:geometricPrecision; text-rendering:geometricPrecision; image-rendering:optimizeQuality; fill-rule:evenodd; clip-rule:evenodd" xmlns:xlink="http://www.w3.org/1999/xlink">
<g><path style="opacity:0.696" fill="#11cdae" d="M 11.5,4.5 C 10.1007,5.88972 8.43406,6.88972 6.5,7.5C 5.19022,5.85228 3.85689,4.18561 2.5,2.5C 6.1842,0.778618 9.1842,1.44528 11.5,4.5 Z"/></g>
<g><path style="opacity:0.868" fill="#1641a2" d="M 11.5,4.5 C 12.5,4.5 13.5,4.5 14.5,4.5C 14.539,7.08896 13.539,9.08896 11.5,10.5C 9.30202,10.8799 7.63535,10.2132 6.5,8.5C 6.5,8.16667 6.5,7.83333 6.5,7.5C 8.43406,6.88972 10.1007,5.88972 11.5,4.5 Z"/></g>
<g><path style="opacity:0.78" fill="#356efe" d="M 6.5,8.5 C 7.63535,10.2132 9.30202,10.8799 11.5,10.5C 9.1421,13.2364 6.1421,14.0698 2.5,13C 0.513474,10.5301 0.0134739,7.69674 1,4.5C 2.77422,5.96501 4.60755,7.29834 6.5,8.5 Z"/></g>
</svg>
